<?xml version="1.0" standalone="no"?>
<!DOCTYPE svg PUBLIC "-//W3C//DTD SVG 1.1//EN" "http://www.w3.org/Graphics/SVG/1.1/DTD/svg11.dtd" >
<svg>
<metadata>
Created by FontForge 20090622 at Fri Mar 17 12:57:01 2017
 By deploy user
Copyright (c) 2011, Carolina Trebol &#60;ca@fromzero.org&#62;, with Reserved Font Name "Marvel".
</metadata>
<defs>
<font id="Marvel-Regular" horiz-adv-x="418" >
  <font-face 
    font-family="Marvel"
    font-weight="400"
    font-stretch="normal"
    units-per-em="1000"
    panose-1="2 0 0 0 0 0 0 0 0 0"
    ascent="800"
    descent="-200"
    x-height="498"
    cap-height="700"
    bbox="-45 -259 823 951"
    underline-thickness="50"
    underline-position="-50"
    unicode-range="U+0020-U+FB02"
  />
<missing-glyph horiz-adv-x="500" 
 />
    <glyph glyph-name=".notdef" horiz-adv-x="500" 
 />
    <glyph glyph-name=".null" horiz-adv-x="0" 
 />
    <glyph glyph-name="nonmarkingreturn" horiz-adv-x="500" 
 />
    <glyph glyph-name="space" unicode=" " horiz-adv-x="210" 
 />
    <glyph glyph-name="space" unicode="&#xa0;" horiz-adv-x="210" 
 />
    <glyph glyph-name="exclam" unicode="!" horiz-adv-x="191" 
d="M70 141v559h52v-559h-52zM69 1v90h53v-90h-53z" />
    <glyph glyph-name="quotedbl" unicode="&#x22;" horiz-adv-x="312" 
d="M269 648q0 -56 -23 -90t-61 -50l-17 60q17 8 30 26.5t13 54.5v51h58v-52zM138 648q0 -56 -23 -90t-61 -50l-17 60q17 8 30 26.5t13 54.5v51h58v-52z" />
    <glyph glyph-name="dollar" unicode="$" horiz-adv-x="471" 
d="M204 764h55v-69q11 -2 22 -5.5t19 -6.5l85 -35l-19 -56l-28 13t-36 16t-37.5 13.5t-33.5 5.5q-27 0 -50 -11t-39.5 -30t-26 -44t-9.5 -52q0 -31 11.5 -54.5t30 -39t42.5 -23t50 -7.5q40 0 75 -13.5t61 -37.5t41 -58t15 -74q0 -39 -13 -73.5t-36.5 -60.5t-55 -42.5
t-68.5 -19.5v-73h-55v76l-48.5 17t-45.5 17.5t-37.5 16l-25.5 11.5l20 55q51 -23 81.5 -35.5t48 -18.5t26.5 -7.5t19 -1.5q28 0 52 10.5t42 28.5t28 43t10 55q0 31 -12 54t-31 38.5t-43 23t-48 7.5q-40 0 -75 13.5t-61.5 38t-41.5 58t-15 73.5q0 37 12 70t33 59t50 43.5
t62 23.5v68z" />
    <glyph glyph-name="ampersand" unicode="&#x26;" horiz-adv-x="599" 
d="M416 129l-199 213l-55 -32q-35 -21 -55.5 -49.5t-20.5 -68.5q0 -33 12.5 -60.5t33.5 -46.5t49 -29.5t60 -10.5q60 0 102 22.5t73 61.5zM484 359h48q0 -28 -2.5 -59t-8 -61.5t-15.5 -59t-25 -50.5l110 -129h-64l-73 89q-38 -45 -92 -71.5t-121 -26.5q-44 0 -82 14
t-66.5 40t-45 63t-16.5 83q0 54 25.5 92t71.5 65l56 33l-52 58q-26 29 -37.5 56t-11.5 61q0 33 12.5 62t34.5 50t53 33.5t67 12.5q35 0 66 -11t54 -31.5t36.5 -50t13.5 -65.5q0 -51 -23 -84.5t-64 -57.5l-74 -44l188 -203q22 39 29.5 86.5t7.5 105.5zM369 556q0 51 -34 80.5
t-85 29.5q-23 0 -44 -8t-36.5 -22t-24.5 -34.5t-9 -45.5q0 -13 4 -25t14 -28.5t28 -39l46 -56.5l79 49q29 18 45.5 43t16.5 57zM527 0l-73 89z" />
    <glyph glyph-name="quotesingle" unicode="'" horiz-adv-x="181" 
d="M138 648q0 -56 -23 -90t-61 -50l-17 60q17 8 30 26.5t13 54.5v51h58v-52v0z" />
    <glyph glyph-name="parenleft" unicode="(" horiz-adv-x="231" 
d="M61 82v537q0 35 9 60t25 40.5t37.5 23t46.5 7.5h18v-54h-13q-29 0 -49.5 -15.5t-20.5 -56.5v-547q0 -41 20.5 -56.5t49.5 -15.5h13v-54h-18q-25 0 -46.5 7.5t-37.5 23t-25 40.5t-9 60z" />
    <glyph glyph-name="parenright" unicode=")" horiz-adv-x="231" 
d="M169 81q0 -35 -9 -60t-25 -40.5t-37.5 -23t-46.5 -7.5h-18v54h13q28 0 49 15.5t21 56.5l1 548q0 41 -21 56.5t-49 15.5h-13v54h18q25 0 46.5 -7.5t37.5 -23t25 -40.5t9 -60l-1 -538v0z" />
    <glyph glyph-name="asterisk" unicode="*" horiz-adv-x="398" 
d="M326 224l-109 65l4 -126h-44l3 126l-107 -65l-22 38l110 60l-110 60l22 37l107 -64l-3 126h44l-4 -126l109 64l21 -37l-110 -60l110 -60z" />
    <glyph glyph-name="plus" unicode="+" horiz-adv-x="429" 
d="M384 235h-137v-137h-65v137h-137v65h137v137h65v-137h137v-65z" />
    <glyph glyph-name="comma" unicode="," horiz-adv-x="171" 
d="M116 48q0 -56 -23 -90t-61 -50l-17 60q17 8 30 26.5t13 54.5v51h58v-52v0z" />
    <glyph glyph-name="hyphen" unicode="-" horiz-adv-x="362" 
d="M61 323v64h240v-64h-240z" />
    <glyph glyph-name="period" unicode="." horiz-adv-x="181" 
d="M56 5v88h69v-88h-69z" />
    <glyph glyph-name="slash" unicode="/" horiz-adv-x="258" 
d="M150 699h60l-101 -698h-60z" />
    <glyph glyph-name="zero" unicode="0" horiz-adv-x="436" 
d="M202 44h32q34 0 58 25.5t24 61.5v387q0 40 -28 61.5t-65 21.5q-21 0 -39.5 -4t-32.5 -14t-22.5 -25.5t-8.5 -39.5v-387q0 -36 23.5 -61.5t58.5 -25.5zM367 518v-390q0 -29 -10.5 -54t-28.5 -43.5t-42 -29t-52 -10.5h-33q-28 0 -52 10.5t-42 29t-28 43.5t-10 54v390
q0 29 10.5 54t28.5 43.5t42 29t52 10.5h33q27 0 51 -10.5t42 -29t28.5 -43.5t10.5 -54z" />
    <glyph glyph-name="one" unicode="1" horiz-adv-x="210" 
d="M78 623l53 27v-649h-53v622z" />
    <glyph glyph-name="two" unicode="2" horiz-adv-x="397" 
d="M260 366q17 23 23 47t7 53q-1 27 -9.5 51.5t-22.5 43t-34 29.5t-45 11q-5 0 -11.5 -1.5t-19.5 -6t-35 -13l-56 -22.5l-23 52l76 31q15 6 35.5 10t35.5 5q35 0 65 -15t51.5 -40.5t34 -59t12.5 -72.5q0 -35 -6.5 -64t-30.5 -61q-27 -47 -59.5 -98l-60.5 -93l-66 -97h221
v-56h-278v65z" />
    <glyph glyph-name="three" unicode="3" horiz-adv-x="413" 
d="M46 610l71 29q15 7 39 12t38 5q36 -1 65 -15t49.5 -38t31.5 -57t11 -72q0 -41 -14 -72.5t-52 -65.5q23 -17 36 -36.5t19.5 -40t8 -42t1.5 -41.5q0 -39 -12.5 -72.5t-34 -58.5t-51.5 -40t-65 -15q-15 1 -35 5t-36 10l-69 27l14 54l82 -35q10 -4 21 -7t21 -3
q25 0 45.5 11.5t35.5 31t24 44.5t10 52q0 27 -6.5 51t-19.5 42.5t-34 29.5t-50 11h-57v49h58q59 0 83.5 33.5t25.5 86.5q-1 27 -11.5 49t-26 37.5t-34.5 24t-37 8.5q-10 0 -25 -2.5t-25 -7.5l-73 -33z" />
    <glyph glyph-name="four" unicode="4" horiz-adv-x="393" 
d="M285 0v195h-253v59l151 396h55l-148 -401h195v114h53v-363h-53z" />
    <glyph glyph-name="five" unicode="5" horiz-adv-x="426" 
d="M379 195q0 -42 -10 -78.5t-30 -64.5t-50 -44t-69 -16q-20 0 -47.5 6t-52.5 13t-42 13.5l-17 6.5l18 57q25 -11 50 -19q21 -7 45 -12.5t44 -5.5q28 0 47.5 11.5t32.5 31.5t19 46t6 55v29q0 29 -6 55t-19 45.5t-33 31t-48 11.5h-154v283h260v-52h-201v-177h96q40 0 70 -15
t50 -41.5t30.5 -62.5t10.5 -78v-29v0z" />
    <glyph glyph-name="six" unicode="6" horiz-adv-x="419" 
d="M234 362h-32q-34 0 -58 -25.5t-24 -61.5v-149q0 -43 29.5 -63.5t69.5 -20.5q19 0 36.5 4.5t31 15t21.5 26t8 38.5v149q0 36 -24 61.5t-58 25.5zM234 -7h-33q-27 0 -51 10.5t-42 29t-28.5 43.5t-10.5 54v374q0 33 12 61t33 48.5t49.5 31.5t60.5 11q5 0 20 -3t32 -7
q19 -4 42 -10l-14 -47q-19 5 -36 9l-27 6t-17 3q-43 0 -74.5 -28t-31.5 -75v-119q12 10 29 15.5t34 8.5t31 3.5t22 0.5q28 0 52 -11t42 -30.5t28.5 -45t10.5 -54.5v-142q0 -29 -10.5 -54t-28.5 -43.5t-42 -29t-52 -10.5z" />
    <glyph glyph-name="seven" unicode="7" horiz-adv-x="360" 
d="M34 650h292v-65l-185 -585h-57l187 599h-237v51z" />
    <glyph glyph-name="eight" unicode="8" horiz-adv-x="433" 
d="M201 39h32q35 0 59 26t24 63v76q0 21 -8.5 37t-22.5 26.5t-32 15.5t-38 5q-39 0 -68 -20t-29 -64v-76q0 -37 24 -63t59 -26zM201 355h32q35 0 59 26t24 63v78q0 40 -28 62t-66 22q-21 0 -39.5 -4.5t-33 -14t-23 -25.5t-8.5 -40v-78q0 -37 24 -63t59 -26zM134 323
q-30 17 -48.5 48.5t-18.5 69.5v86q0 36 13 60.5t34.5 39.5t50 21.5t59.5 6.5q28 0 54 -9t45.5 -25.5t31 -40t11.5 -53.5v-86q0 -39 -19 -70.5t-50 -48.5q31 -16 50 -44.5t19 -67.5v-85q0 -27 -9.5 -51.5t-26.5 -43t-40 -29t-49 -10.5h-48q-26 0 -49 10.5t-40 29t-27 43
t-10 51.5v85q0 38 18.5 68t48.5 45z" />
    <glyph glyph-name="nine" unicode="9" horiz-adv-x="426" 
d="M192 299h32q34 0 58 25.5t24 61.5v137q0 40 -28 61.5t-65 21.5q-21 0 -39.5 -4t-32.5 -14t-22.5 -25.5t-8.5 -39.5v-137q0 -36 23.5 -61.5t58.5 -25.5zM192 656h33q27 0 51 -10.5t42 -29t28.5 -43.5t10.5 -54v-378q0 -33 -12.5 -61t-33.5 -48.5t-49 -31.5t-60 -11
q-5 0 -27.5 5l-48.5 11l-66 16l14 47q33 -9 60 -15q23 -6 43.5 -10.5t24.5 -4.5q43 0 74.5 28t31.5 75v135q-10 -9 -26 -14.5t-33 -8.5t-32.5 -4t-24.5 -1q-28 0 -52 11t-42 30.5t-28.5 45t-10.5 54.5v130q0 29 10.5 54t28.5 43.5t42 29t52 10.5z" />
    <glyph glyph-name="colon" unicode=":" horiz-adv-x="192" 
d="M131 321h-69v90h69v-90zM130 1h-69v88h69v-88z" />
    <glyph glyph-name="semicolon" unicode=";" horiz-adv-x="216" 
d="M147 46q0 -56 -23 -90t-61 -50l-32 58q17 8 32 27.5t15 55.5v51h69v-52zM78 321v90h69v-90h-69z" />
    <glyph glyph-name="less" unicode="&#x3c;" horiz-adv-x="491" 
d="M419 225v-54l-366 89v85l366 85v-55l-166 -36q-15 -4 -37.5 -8.5t-43.5 -9.5q-25 -5 -51 -11v-20l15.5 -3.5t36.5 -7.5t43.5 -9t37.5 -8z" />
    <glyph glyph-name="equal" unicode="=" horiz-adv-x="481" 
d="M69 370v64h343v-64h-343zM69 175v64h343v-64h-343z" />
    <glyph glyph-name="greater" unicode="&#x3e;" horiz-adv-x="490" 
d="M237 267q15 3 37.5 8t43.5 9t36.5 7.5l15.5 3.5v20q-26 6 -51 11q-21 5 -43.5 9.5t-37.5 8.5l-166 36v55l366 -85v-85l-366 -89v54z" />
    <glyph glyph-name="question" unicode="?" horiz-adv-x="425" 
d="M196 0v90h-69v-90h69zM386 539q0 -32 -9.5 -55t-20.5 -40l-143 -215q-10 -14 -17 -29.5t-7 -38.5v-21h-58v20q0 35 8.5 58t20.5 40l136 204q11 17 22 37t11 39q0 26 -13 47t-32.5 35.5t-42 22.5t-40.5 8q-12 0 -24.5 -3t-24.5 -8l-98 -37l-19 54l84 35q17 7 41 12.5
t40 5.5q36 0 70 -12.5t59.5 -35t41 -54t15.5 -69.5z" />
    <glyph glyph-name="at" unicode="@" horiz-adv-x="863" 
d="M823 401q0 -47 -11.5 -95t-34.5 -87t-59.5 -64t-85.5 -25q-34 0 -59 22t-31 57q-9 -17 -23.5 -31.5t-31.5 -24.5t-36.5 -15.5t-38.5 -5.5q-38 0 -67.5 14.5t-49 38.5t-29.5 56t-10 67q0 41 12.5 80t36 70t58 49.5t79.5 18.5q35 0 65.5 -16.5t44.5 -49.5l13 57h37
l-20 -264v-9q0 -32 14 -51.5t41 -19.5q34 0 60.5 19.5t43.5 52t26 73.5t9 83q0 70 -25 125t-68.5 93t-102.5 57.5t-126 19.5q-83 0 -149.5 -27.5t-113 -76.5t-72 -117t-25.5 -149q0 -72 24 -136t68 -111t105.5 -74.5t135.5 -27.5q66 0 129 11.5t124 37.5v-47
q-65 -28 -125.5 -38t-130.5 -10q-85 0 -155 30.5t-119.5 84t-77 125.5t-27.5 155q0 92 29 168.5t82.5 131.5t129 85.5t168.5 30.5q77 0 144 -23t117 -67t79 -107.5t29 -143.5zM543 350q0 26 -5.5 50t-18.5 42.5t-33.5 29.5t-50.5 11q-32 0 -56.5 -16t-41 -41t-25 -56
t-8.5 -62q0 -28 7 -52.5t20.5 -42.5t34 -28.5t48.5 -10.5q35 0 59.5 17t40 42.5t22.5 56.5t7 60z" />
    <glyph glyph-name="A" unicode="A" horiz-adv-x="459" 
d="M319 255l-82 380h-13l-83 -380h178v0zM125 196l-44 -195h-54l160 700h85l160 -700h-53l-45 195h-209v0z" />
    <glyph glyph-name="B" unicode="B" horiz-adv-x="473" 
d="M134 327v-269h126q30 0 50 10.5t32 28.5t17 42t5 51q0 28 -5 53t-17 43.5t-32 29.5t-50 11h-126zM341 517q-1 27 -9 51.5t-19 39.5t-22 24q-2 2 -5 3q-1 0 -1 1q-1 0 -2 1l-15.5 9t-35.5 6q-10 0 -33 -4t-65 -22v-241h103q30 0 50 10.5t32 28.5t17 42t5 51zM240 710
q36 0 53 -9t22 -12q23 -14 43 -38.5t32 -58.5t12 -71q0 -45 -11 -88t-53 -78q27 -18 43.5 -37.5t25.5 -39.5t12.5 -42t3.5 -46q0 -39 -10 -73.5t-22.5 -50.5l-17.5 -22q-18 -18 -44.5 -31t-68.5 -13h-182v671q38 15 66.5 23t40.5 10q29 6 55 6z" />
    <glyph glyph-name="C" unicode="C" horiz-adv-x="437" 
d="M121 188q0 -32 11 -58t29 -44t42 -28.5t50 -11.5q8 0 16.5 1.5t22 6.5l35 13.5l56.5 22.5l22 -57l-81 -29q-17 -6 -37 -10t-34 -4q-38 0 -71.5 13.5t-59 38.5t-40.5 60.5t-15 80.5v10v313q0 42 14.5 78.5t32.5 55.5q18 20 29 29.5t23 16.5l30 14.5t59 9.5q14 0 34 -5
t36 -10l78 -31l-18 -52l-87 34q-10 4 -21 7t-21 3q-27 0 -51 -12.5t-42.5 -33.5t-29 -48t-10.5 -56z" />
    <glyph glyph-name="D" unicode="D" horiz-adv-x="477" 
d="M73 671q60 25 100.5 32t54.5 7q39 0 72.5 -16.5t57.5 -44t38 -64.5t14 -78v-322q0 -42 -16 -77.5t-42.5 -62t-61.5 -41t-73 -14.5q-8 0 -18.5 1t-27.5 4.5t-41 11t-57 20.5v644zM350 507q0 45 -20.5 78.5t-45.5 49.5q-31 17 -56 17q-23 0 -50 -10t-49 -19v-550
q22 -10 38 -15t27 -7t18.5 -2h12.5q25 0 48 12t40.5 32t28 46t10.5 55z" />
    <glyph glyph-name="E" unicode="E" horiz-adv-x="406" 
d="M361 700v-57h-225v-262h176v-58h-176v-264h227v-58h-284v699h282z" />
    <glyph glyph-name="F" unicode="F" horiz-adv-x="386" 
d="M360 700v-57h-225v-263h176v-57h-176v-323h-57v700h282z" />
    <glyph glyph-name="G" unicode="G" horiz-adv-x="447" 
d="M124 509v-332q0 -28 10.5 -52t28.5 -42t41.5 -28.5t48.5 -10.5q10 0 28.5 4t56.5 24v189h56v-225q-57 -30 -93.5 -38t-50.5 -8q-40 0 -73.5 16t-58 43.5t-38 64t-13.5 77.5v318q4 94 54 147.5t131 53.5q14 -1 34 -5t36 -10l63 -24l-20 -57l-70 27q-25 10 -43 10
q-26 0 -49.5 -11.5t-41 -31t-27.5 -45.5t-10 -54z" />
    <glyph glyph-name="H" unicode="H" horiz-adv-x="515" 
d="M79 700h56v-317h244v317h57v-699h-57v323h-244v-323h-56v699v0z" />
    <glyph glyph-name="I" unicode="I" horiz-adv-x="208" 
d="M78 700h52v-700h-52v700z" />
    <glyph glyph-name="J" unicode="J" horiz-adv-x="306" 
d="M227 136q0 -42 -4.5 -70t-17.5 -45t-36.5 -24t-60.5 -7q-4 0 -16.5 0.5t-27.5 2t-28.5 3t-20.5 3.5l11 59q4 -1 16.5 -2.5t25.5 -2.5t24 -2t13 -1q13 0 25 2.5t21 11t14.5 24t5.5 41.5v571h56v-564v0z" />
    <glyph glyph-name="K" unicode="K" horiz-adv-x="390" 
d="M303 0l-141 319h-28v-319h-56v700h56v-321h27l144 319h62l-153 -350l151 -348h-62z" />
    <glyph glyph-name="L" unicode="L" horiz-adv-x="376" 
d="M78 700h57v-644h222v-56h-279v700z" />
    <glyph glyph-name="M" unicode="M" horiz-adv-x="608" 
d="M311 265l132 435h87v-700h-54v582h-13l-117 -376h-87l-116 376h-12v-582h-53v700h87l130 -435h16z" />
    <glyph glyph-name="N" unicode="N" horiz-adv-x="554" 
d="M476 700v-700h-97l-238 582h-12v-582h-51v700h72l261 -631h13v631h52z" />
    <glyph glyph-name="O" unicode="O" horiz-adv-x="520" 
d="M397 172v351q0 40 -15.5 64.5t-37 38t-45 18t-39.5 4.5t-39.5 -5t-45.5 -18.5t-37.5 -38t-15.5 -64.5v-351q0 -40 15.5 -63.5t37.5 -36t45.5 -16t39.5 -3.5t39.5 4t45 16.5t37 36t15.5 63.5zM452 172q0 -22 -8.5 -53t-30.5 -59.5t-59.5 -48.5t-94.5 -20q-56 0 -93 20
t-58.5 48.5t-30.5 59.5t-9 53v350q0 22 8.5 54t30.5 61.5t59 50.5t94 21q56 0 93 -21t59 -50t31 -61t9 -54v-351z" />
    <glyph glyph-name="P" unicode="P" horiz-adv-x="493" 
d="M243 652q-18 0 -37 -4.5t-36 -9.5q-19 -6 -38 -13v-281h111q72 0 116 40t44 119q0 78 -44.5 113.5t-115.5 35.5zM251 710q41 0 79 -14.5t67 -41.5t46 -65.5t17 -85.5q0 -48 -16 -88t-44 -68.5t-66.5 -44.5t-83.5 -16h-119v-286h-53v671q26 10 55 19q25 8 55.5 14t62.5 6z
" />
    <glyph glyph-name="Q" unicode="Q" horiz-adv-x="520" 
d="M395 521q0 40 -15 65t-36.5 39.5t-44.5 20t-39 5.5t-39 -5.5t-44.5 -19.5t-37 -39t-15.5 -65v-351q0 -40 15.5 -63.5t37 -36t44.5 -16t39 -3.5t39 3.5t44.5 16t36.5 36t15 63.5v350zM452 171q0 -20 -7 -47t-23.5 -53t-44.5 -47t-71 -29q10 -24 34 -35l-17 -61
q-29 12 -50 34.5t-30 57.5q-51 3 -84.5 23.5t-54 48.5t-28.5 58t-8 51v349q0 22 8.5 54t30.5 62t59 51t94 21q56 0 93 -21t59 -51t31 -62t9 -54v-350z" />
    <glyph glyph-name="R" unicode="R" horiz-adv-x="503" 
d="M243 652q-18 0 -37 -4t-36 -9q-19 -6 -38 -13v-281h111q72 0 116 43t44 122q0 39 -12 66t-33 44t-50.5 24.5t-64.5 7.5zM345 305l124 -305h-56l-124 290q-18 -3 -39 -3h-119v-287h-53v671q27 10 56 19q25 8 55.5 14t61.5 6q41 0 79 -13.5t67 -39t46 -62.5t17 -85
q0 -34 -8 -66.5t-23 -59.5t-36.5 -47.5t-47.5 -31.5z" />
    <glyph glyph-name="S" unicode="S" horiz-adv-x="467" 
d="M440 205q0 -42 -14.5 -79t-40 -64.5t-60.5 -44t-75 -16.5q-39 0 -76 10t-66 22q-34 14 -65 33l20 55q34 -18 67 -31q29 -11 61 -20.5t58 -9.5q28 0 52.5 11t42.5 30.5t28 45.5t10 56q0 31 -14 51.5t-35.5 34t-47.5 21t-51 11.5q-37 6 -69.5 21t-57 39t-38.5 56t-14 72
q0 41 14.5 77.5t40 64t59.5 43.5t72 16q24 0 49.5 -5.5t47.5 -11.5q25 -8 49 -17l-19 -56q-22 9 -45 16q-20 6 -42 11t-42 5q-27 0 -50.5 -11.5t-40.5 -31t-27 -45t-10 -52.5q0 -31 12.5 -54.5t32 -39.5t43.5 -25.5t46 -13.5q41 -7 76.5 -20t62 -33.5t41.5 -50.5t15 -70z
" />
    <glyph glyph-name="T" unicode="T" 
d="M399 700v-54h-160v-646h-54v646h-166v54h380v0z" />
    <glyph glyph-name="U" unicode="U" horiz-adv-x="534" 
d="M267 43q18 0 42 5.5t45.5 20t36 39.5t14.5 65v528h52v-528q0 -29 -9 -60.5t-30.5 -58t-58.5 -44t-92 -17.5t-91.5 17.5t-58.5 44t-31 58t-9 60.5v528h52v-528q0 -40 14 -65t34.5 -39.5t44.5 -20t45 -5.5z" />
    <glyph glyph-name="V" unicode="V" horiz-adv-x="456" 
d="M375 700h56l-162 -700h-85l-157 700h55l139 -634h13q11 46 22 99l22.5 101.5l26.5 116.5z" />
    <glyph glyph-name="W" unicode="W" horiz-adv-x="609" 
d="M301 363l-79 -362h-86l-102 699h52l92 -635h8l81 362h76l80 -362h8l92 635h52l-102 -699h-86l-78 362h-8z" />
    <glyph glyph-name="X" unicode="X" horiz-adv-x="452" 
d="M214 318l-133 -318h-56l146 347l-146 353h56l137 -322h17l137 322h56l-146 -353l145 -347h-57l-132 318h-24z" />
    <glyph glyph-name="Y" unicode="Y" horiz-adv-x="433" 
d="M260 318h-14v-318h-60v318h-12l-159 382h56l137 -322h17l137 322h56z" />
    <glyph glyph-name="Z" unicode="Z" horiz-adv-x="453" 
d="M332 627v14h-276v59h350v-58l-299 -567v-16h315v-59h-389v66z" />
    <glyph glyph-name="bracketleft" unicode="[" horiz-adv-x="237" 
d="M67 -84v861h139v-49h-89v-763h89v-49h-139z" />
    <glyph glyph-name="backslash" unicode="\" horiz-adv-x="383" 
d="M300 -57l-270 825h54l269 -825h-53z" />
    <glyph glyph-name="bracketright" unicode="]" horiz-adv-x="237" 
d="M31 -85v49h89v763h-89v49h139v-861h-139z" />
    <glyph glyph-name="underscore" unicode="_" horiz-adv-x="210" 
 />
    <glyph glyph-name="grave" unicode="`" horiz-adv-x="364" 
d="M206 589l-106 147h61l97 -147h-52z" />
    <glyph glyph-name="a" unicode="a" horiz-adv-x="403" 
d="M294 243q0 1 -9 6.5t-24.5 12t-36.5 12t-44 5.5q-17 0 -32.5 -7t-26.5 -19t-17.5 -27.5t-6.5 -33.5v-63q0 -18 6.5 -33.5t17.5 -27t26 -18.5t32 -7q15 0 34.5 5.5t37.5 12.5q21 8 43 18v164zM345 49l19 -18l-36 -36l-27 27q-32 -18 -66.5 -25t-54.5 -7q-28 0 -52.5 11.5
t-42.5 31t-28 45.5t-10 55v56q0 29 10 54.5t28 44.5t42.5 30t52.5 11q7 0 21.5 -1t31 -4t33.5 -8.5t29 -14.5v34q0 23 -8.5 45.5t-22.5 40.5t-33 29t-41 11q-8 0 -28.5 -5l-42.5 -10q-26 -6 -56 -14l-14 47l61 15q24 6 47 11t33 5q32 0 60 -15t49 -39.5t33 -56t12 -64.5z
" />
    <glyph glyph-name="b" unicode="b" 
d="M115 79q3 -9 18 -15.5t33.5 -11t36.5 -7t27 -2.5q17 0 32 7t26 18.5t17.5 27t6.5 33.5v243q0 36 -24 61.5t-59 25.5q-9 0 -23.5 -2t-30.5 -6.5t-32 -11t-28 -15.5v-345zM114 482q40 21 69 24.5t46 3.5q28 0 52 -11t42 -30.5t28.5 -45t10.5 -54.5v-236q0 -29 -10.5 -55
t-28.5 -45t-42 -30t-52 -11q-22 0 -55.5 6.5t-66.5 24.5l-27 -26l-35 35l19 20v648h50v-218z" />
    <glyph glyph-name="c" unicode="c" horiz-adv-x="345" 
d="M105 148q0 -24 8.5 -43.5t23.5 -33.5t34.5 -21.5t41.5 -7.5q10 0 25 2.5t29 5.5q17 4 35 9l16 -46q-20 -7 -38 -11q-16 -4 -34.5 -7t-32.5 -3q-33 0 -61.5 11.5t-50 32.5t-34 49.5t-12.5 62.5v209q0 34 12.5 62.5t33.5 48.5t49.5 31.5t61.5 11.5q16 0 33.5 -4t32.5 -9
q18 -5 35 -12l-12 -43q-15 5 -31 9q-14 4 -29 7t-29 3q-44 0 -75.5 -28.5t-31.5 -76.5v-209z" />
    <glyph glyph-name="d" unicode="d" horiz-adv-x="419" 
d="M303 78v345q-35 23 -66 29t-48 6q-35 0 -59 -25.5t-24 -61.5v-243q0 -18 6.5 -33.5t17.5 -27t26 -18.5t32 -7q9 0 27 2.5t36.5 7t33.5 11t18 15.5zM304 481v218h50v-651l22 -22l-36 -35l-30 30q-32 -18 -66 -24t-55 -6q-28 0 -52 11t-42 30t-28.5 45t-10.5 55v236
q0 29 10.5 54.5t28.5 45t42 30.5t52 11q17 0 46 -3.5t69 -24.5z" />
    <glyph glyph-name="e" unicode="e" horiz-adv-x="407" 
d="M225 241h2q18 0 33 7.5t26 20t17.5 28.5t6.5 34v42q0 24 -9 40.5t-23.5 26.5t-34 14.5t-40.5 4.5q-19 0 -36.5 -6t-30.5 -17t-21 -27t-8 -36v-131zM55 368q0 30 10.5 56t29 45t43 30t53.5 11h34q28 0 53 -11t44 -30t29.5 -45t10.5 -56v-33q0 -42 -15 -70.5t-41 -46.5
t-60.5 -25.5t-73.5 -7.5q-16 0 -32 1t-33 3v-60q7 -40 37.5 -63.5t69.5 -23.5q4 0 25.5 4.5l45.5 9.5q28 6 62 14l12 -53q-37 -8 -67 -13q-26 -5 -49.5 -9t-28.5 -4q-32 0 -61 11.5t-51 32.5t-34.5 49.5t-12.5 62.5v221z" />
    <glyph glyph-name="f" unicode="f" horiz-adv-x="285" 
d="M166 0h-53v451h-88v49h89v78q0 35 9 60t24.5 40.5t37 23t46.5 7.5h18v-54h-13q-28 0 -49.5 -15t-21.5 -55v-85h96v-49h-95v-451z" />
    <glyph glyph-name="g" unicode="g" horiz-adv-x="419" 
d="M303 423q-3 9 -18 15.5t-33.5 11t-36.5 7t-27 2.5q-17 0 -32 -7t-26 -18.5t-17.5 -27t-6.5 -33.5v-244q0 -36 24 -61.5t59 -25.5q9 0 24.5 2.5t33 7t33 11t23.5 14.5v346zM354 -117q0 -37 -12.5 -64t-33.5 -44t-49.5 -25.5t-60.5 -8.5q-15 0 -39 5t-47 11q-27 7 -56 16
l14 47q27 -9 53 -16q21 -6 42.5 -10.5t32.5 -4.5q43 0 74.5 23t31.5 70v134q-35 -18 -61 -21.5t-43 -3.5h-11q-28 0 -52 11t-42 30.5t-28.5 45t-10.5 54.5v237q0 29 10.5 55t28.5 45t42 30t52 11q23 0 53.5 -6.5t67.5 -23.5l30 30l36 -36l-22 -21v-570z" />
    <glyph glyph-name="h" unicode="h" horiz-adv-x="424" 
d="M312 0v372q0 36 -24 61.5t-59 25.5q-9 0 -22 -1.5t-29 -5.5t-32 -11t-31 -17v-424h-51v700h50v-218q40 21 69 24.5t46 3.5q28 0 52 -11t42 -30.5t28.5 -45t10.5 -54.5v-369h-50z" />
    <glyph glyph-name="i" unicode="i" horiz-adv-x="181" 
d="M64 700h53v-78h-53v78zM64 500h53v-500h-53v500z" />
    <glyph glyph-name="j" unicode="j" horiz-adv-x="182" 
d="M63 501h55v-614q0 -35 -9 -60t-25 -40.5t-37.5 -23t-46.5 -7.5h-18v54h13q14 0 27 3.5t22.5 12t15.5 22t6 34.5zM63 699h55v-74h-55v74z" />
    <glyph glyph-name="k" unicode="k" horiz-adv-x="334" 
d="M255 0l-107 239h-33v-239h-51v700h51v-400h32l107 199h57l-123 -231l124 -268h-57z" />
    <glyph glyph-name="l" unicode="l" horiz-adv-x="212" 
d="M70 700h52v-573q0 -41 20.5 -56.5t49.5 -15.5h13v-54h-18q-25 0 -46.5 7.5t-37 23t-24.5 40.5t-9 60v568z" />
    <glyph glyph-name="m" unicode="m" horiz-adv-x="689" 
d="M320 376q0 18 -8.5 33t-23 26t-32.5 17.5t-36 6.5q-9 0 -23.5 -3t-29.5 -8t-28.5 -11t-22.5 -13v-424h-51v452l-22 22l36 35l30 -31q26 14 52.5 23t51.5 9q45 0 83 -19t53 -59q14 24 32 39t37.5 23.5t39 12t37.5 3.5q36 0 61.5 -13t41.5 -33.5t23 -45t7 -48.5v-370h-52
v363q0 19 -4.5 36t-14 30t-26 21t-40.5 8q-63 0 -91 -35.5t-28 -99.5v-323h-52v376z" />
    <glyph glyph-name="n" unicode="n" horiz-adv-x="432" 
d="M356 427q12 -25 14 -50.5t2 -52.5v-324h-53v355q0 51 -27 78t-61 27q-19 0 -48.5 -6t-66.5 -30v-424h-51v451l-22 21l36 36l30 -30q55 31 104 31q45 0 84 -18.5t59 -63.5z" />
    <glyph glyph-name="o" unicode="o" 
d="M316 144v217q0 33 -12 52.5t-28.5 30t-35 14t-31.5 3.5t-31.5 -3.5t-35.5 -14t-29 -30t-12 -52.5v-217q0 -33 12 -52.5t29 -30.5t35.5 -14.5t31.5 -3.5t31.5 3.5t35 14.5t28.5 30.5t12 52.5zM362 137q0 -46 -17 -74t-41 -43.5t-50 -20.5t-45 -5t-45 5t-50 20.5t-41 43.5
t-17 74v231q0 46 17 74t41 43t50 20t45 5t45 -5t50 -20t41 -43t17 -74v-231z" />
    <glyph glyph-name="p" unicode="p" horiz-adv-x="419" 
d="M116 76q12 -8 28 -14t32 -11t30.5 -7.5t23.5 -2.5q35 0 59 25.5t24 61.5v245q0 18 -6.5 33.5t-17.5 27t-26 18.5t-32 7q-9 0 -23 -1.5t-29.5 -6t-31.5 -11.5t-31 -17v-347zM115 18v-268h-50v703l-22 21l35 36l31 -30q34 17 66 23.5t55 6.5q28 0 52 -11t42 -30t28.5 -45
t10.5 -55v-238q0 -29 -10.5 -54.5t-28.5 -45t-42 -30.5t-52 -11q-17 0 -46 3.5t-69 24.5z" />
    <glyph glyph-name="q" unicode="q" horiz-adv-x="419" 
d="M303 422q-38 25 -67 30.5t-48 5.5q-17 0 -32 -7t-26 -18.5t-17.5 -27t-6.5 -33.5v-244q0 -36 24 -61t59 -25q9 0 23 2t30 6t32.5 10.5t28.5 16.5v345zM285 7q-29 -14 -52.5 -15t-40.5 -2q-28 0 -52.5 11t-43 30.5t-29.5 45t-11 54.5v237q0 29 10.5 55t28.5 45t42 30
t52 11q22 0 54.5 -6.5t66.5 -23.5l31 30l35 -36l-22 -21v-702h-50v266z" />
    <glyph glyph-name="r" unicode="r" horiz-adv-x="330" 
d="M323 470l-28 -42q-17 10 -28 15.5t-20.5 8.5t-18 3.5t-18.5 0.5q-15 0 -41 -8.5t-52 -32.5v-414h-50v442l-26 26l35 36l35 -34q29 26 55.5 32.5t45.5 6.5q20 0 44 -8t67 -32z" />
    <glyph glyph-name="s" unicode="s" horiz-adv-x="361" 
d="M336 138q0 -74 -37 -111t-95 -37q-18 0 -37 3t-38 11l-83 33l20 44l82 -33q15 -6 29.5 -8.5t27.5 -2.5q35 0 59 27t24 78q0 21 -8.5 36t-21 24.5t-28 14t-28.5 4.5q-36 0 -65 6.5t-49.5 23t-31.5 43.5t-11 68q0 73 39.5 110.5t97.5 37.5q17 0 35.5 -4.5t38.5 -11.5
l33 -12l-19 -43q-24 9 -38.5 13.5t-23 6.5t-13 2.5t-9.5 0.5h-5q-35 0 -61.5 -27.5t-26.5 -77.5q0 -21 9 -37t23 -27.5t29.5 -17t29.5 -5.5q31 0 59 -5.5t48.5 -20t32.5 -40.5t12 -66z" />
    <glyph glyph-name="t" unicode="t" horiz-adv-x="267" 
d="M104 130v321h-85v50h85v199h53v-199h92v-50h-92v-326q0 -41 20.5 -56.5t49.5 -15.5h22v-54h-27q-25 0 -46.5 7.5t-37.5 23t-25 40.5t-9 60z" />
    <glyph glyph-name="u" unicode="u" horiz-adv-x="432" 
d="M77 74q-12 25 -14 50.5t-2 52.5v323h52v-354q0 -26 7.5 -45.5t20 -32.5t28.5 -20t33 -7q32 0 64.5 11.5t50.5 24.5v423h51v-450l22 -21l-36 -36l-30 30q-29 -16 -62 -23.5t-59 -7.5q-36 0 -71 18.5t-55 63.5z" />
    <glyph glyph-name="v" unicode="v" horiz-adv-x="363" 
d="M289 500h51l-113 -500h-85l-119 500h50l75 -300q4 -15 8.5 -37.5l8.5 -43.5l7 -36l3 -15h20q6 27 11 52q5 21 9 43.5t8 37.5z" />
    <glyph glyph-name="w" unicode="w" horiz-adv-x="532" 
d="M309 499l73 -434h8l63 435h50l-80 -500h-74l-78 436h-11l-78 -436h-73l-80 500h50l60 -434h9l74 433h87z" />
    <glyph glyph-name="x" unicode="x" horiz-adv-x="364" 
d="M170 220l-94 -220h-51l106 249l-106 251h51l98 -220h16l93 220h53l-102 -251l105 -248h-53l-95 219h-21z" />
    <glyph glyph-name="y" unicode="y" horiz-adv-x="375" 
d="M121 -250l41 250h-7l-133 500h51q26 -110 46.5 -186.5l34.5 -125.5l27 -94h12l24 94l33.5 125.5l51.5 186.5h51l-134 -500h-6l-41 -250h-51z" />
    <glyph glyph-name="z" unicode="z" horiz-adv-x="406" 
d="M376 0h-341v52l253 376v19h-244v51h315v-52l-253 -377v-18h270v-51z" />
    <glyph glyph-name="braceleft" unicode="{" horiz-adv-x="233" 
d="M179 -74q-34 0 -54.5 6.5t-33.5 19.5q-14 14 -20 33t-6 54v622q0 35 6 54t20 33q13 13 33.5 19.5t54.5 6.5h23v-49h-18q-23 0 -35 -1.5t-20 -9.5q-9 -9 -11.5 -25t-2.5 -40v-602q0 -24 2.5 -38.5t11.5 -22.5q8 -8 20 -9.5t35 -1.5h18v-49h-23z" />
    <glyph glyph-name="bar" unicode="|" horiz-adv-x="186" 
d="M68 -10v710h50v-710h-50z" />
    <glyph glyph-name="braceright" unicode="}" horiz-adv-x="238" 
d="M173 41q0 -35 -6 -54t-20 -33q-14 -13 -34.5 -19.5t-54.5 -6.5h-26v49h21h13q17 0 26.5 1.5t16.5 8.5q8 8 11 22.5t3 38.5v607q0 24 -3 38.5t-11 22.5t-20.5 9.5t-35.5 1.5h-21v49h26q34 0 54.5 -6.5t34.5 -19.5q14 -14 20 -33t6 -54v-622v0z" />
    <glyph glyph-name="asciitilde" unicode="~" horiz-adv-x="460" 
d="M415 283q-18 -18 -32 -29t-26 -17t-24 -8.5t-26 -2.5q-19 0 -38.5 7.5t-39 16.5t-39 16.5t-39.5 7.5q-18 0 -32.5 -6.5t-39.5 -31.5l-33 27q18 18 31.5 29t26 17t24.5 8.5t26 2.5q21 0 40 -7.5t38 -16.5t37.5 -16.5t39.5 -7.5q18 0 32.5 6.5t39.5 31.5z" />
    <glyph glyph-name="exclamdown" unicode="&#xa1;" horiz-adv-x="190" 
d="M121 560v-559h-52v559h52zM121 700v-90h-53v90h53z" />
    <glyph glyph-name="cent" unicode="&#xa2;" horiz-adv-x="355" 
d="M172 508v129h50v-126q15 -2 30.5 -6t28.5 -8l29 -10l-12 -43q-15 5 -31 9q-14 4 -29 7t-29 3q-44 0 -75.5 -28.5t-31.5 -76.5v-209q0 -24 8.5 -43.5t23.5 -33.5t34.5 -21.5t41.5 -7.5q10 0 25 2.5t29 5.5q17 4 35 9l16 -46q-16 -5 -32 -9q-14 -4 -30.5 -7t-30.5 -4v-125
h-50v128q-52 12 -86 53t-34 99v209q0 59 34 99t86 51z" />
    <glyph glyph-name="sterling" unicode="&#xa3;" horiz-adv-x="504" 
d="M401 526q0 41 -14 66.5t-34 39.5t-43.5 18.5t-41.5 4.5q-20 0 -42 -5t-41 -19.5t-31 -39t-12 -63.5v-146h221v-59h-221v-269h313v-54h-368v323h-39v59h39v144q0 40 12.5 73.5t36.5 58t57.5 38t75.5 13.5q41 0 75.5 -13.5t59 -38t38.5 -58t14 -73.5h-55z" />
    <glyph glyph-name="yen" unicode="&#xa5;" horiz-adv-x="481" 
d="M412 176h-142v-175h-60v175h-141v64h141v79h-12l-22 52h-107v64h81l-111 266h56l137 -322h17l137 322h56l-110 -266h80v-64h-107l-21 -52h-14v-79h142v-64v0z" />
    <glyph glyph-name="brokenbar" unicode="&#xa6;" horiz-adv-x="190" 
d="M69 700h52v-312h-52v312zM69 312h52v-312h-52v312z" />
    <glyph glyph-name="dieresis" unicode="&#xa8;" horiz-adv-x="451" 
d="M302 600v77h58v-77h-58zM104 600v77h58v-77h-58z" />
    <glyph glyph-name="copyright" unicode="&#xa9;" horiz-adv-x="799" 
d="M758 349q0 -74 -28 -139.5t-76.5 -114.5t-114 -77t-139.5 -28t-139.5 28t-114.5 77t-77 114.5t-28 139.5t28 139.5t77 114t114.5 77t139.5 28.5t139.5 -28.5t114 -77t76.5 -114t28 -139.5zM708 349q0 64 -24 120.5t-66 98.5t-98 66t-120 24t-120 -24t-98 -66t-66.5 -98.5
t-24.5 -120.5q0 -65 24.5 -121t66.5 -98t98 -66t120 -24t120 24t98 66t66 98t24 121zM325 271q0 -38 25.5 -61t60.5 -23q8 0 19.5 2t22.5 5q13 3 28 7l12 -36q-15 -5 -30 -9q-13 -3 -27 -5.5t-25 -2.5q-26 0 -48.5 9t-39.5 25.5t-27 39t-10 49.5v169q0 27 9.5 49t26.5 38
t39.5 25t48.5 9q12 0 26 -3t26 -7q14 -4 27 -10l-9 -34q-12 3 -24 7q-11 3 -23 5.5t-23 2.5q-35 0 -60 -22.5t-25 -59.5v-169z" />
    <glyph glyph-name="registered" unicode="&#xae;" horiz-adv-x="799" 
d="M758 353q0 -74 -28 -139.5t-76.5 -114.5t-114 -77t-139.5 -28t-139.5 28t-114.5 77t-77 114.5t-28 139.5t28 139.5t77 114t114.5 77t139.5 28.5t139.5 -28.5t114 -77t76.5 -114t28 -139.5zM708 353q0 64 -24 120.5t-66 98.5t-98 66t-120 24t-120 -24t-98 -66t-66.5 -98.5
t-24.5 -120.5q0 -65 24.5 -121t66.5 -98t98 -66t120 -24t120 24t98 66t66 98t24 121zM394 533q-11 0 -22.5 -2.5t-21.5 -5.5q-11 -4 -23 -7v-166h67q42 0 68 25t26 72t-26 65.5t-68 18.5zM455 328l73 -181h-34l-73 172q-5 -2 -11 -2h-12h-71v-170h-31v398q15 6 33 11
q15 5 33 8.5t37 3.5q24 0 46.5 -8t40 -23t27.5 -37.5t10 -50.5q0 -40 -19 -74.5t-49 -46.5z" />
    <glyph glyph-name="degree" unicode="&#xb0;" horiz-adv-x="330" 
d="M290 586q0 -26 -10 -48.5t-27 -39.5t-40 -27t-49 -10t-48.5 10t-39 27t-26.5 39.5t-10 48.5t10 48.5t26.5 39.5t39 27t48.5 10t49 -9.5t40 -26.5t27 -40t10 -49zM244 586q0 33 -23.5 56t-56.5 23q-32 0 -55.5 -23t-23.5 -56q0 -32 23.5 -55t55.5 -23q33 0 56.5 23
t23.5 55z" />
    <glyph glyph-name="acute" unicode="&#xb4;" horiz-adv-x="463" 
d="M257 590h-52l97 147h61z" />
    <glyph glyph-name="mu" unicode="&#xb5;" horiz-adv-x="441" 
d="M73 -208v340q-1 11 -1 22v23v323h1v2h50v-2h1v-354q0 -26 7.5 -45.5t20 -32.5t28.5 -20t33 -7q32 0 64.5 11.5t50.5 24.5v423h51v-450l22 -21l-36 -36l-30 30q-29 -16 -62 -23.5t-59 -7.5q-24 0 -47.5 7.5t-43.5 24.5v-232h-50z" />
    <glyph glyph-name="mu" unicode="&#x3bc;" horiz-adv-x="441" 
d="M73 -208v340q-1 11 -1 22v23v323h1v2h50v-2h1v-354q0 -26 7.5 -45.5t20 -32.5t28.5 -20t33 -7q32 0 64.5 11.5t50.5 24.5v423h51v-450l22 -21l-36 -36l-30 30q-29 -16 -62 -23.5t-59 -7.5q-24 0 -47.5 7.5t-43.5 24.5v-232h-50z" />
    <glyph glyph-name="cedilla" unicode="&#xb8;" horiz-adv-x="394" 
d="M234 -98q0 -56 -15 -84t-41 -40l-29 36q17 8 27 30.5t10 58.5v51h48v-52v0z" />
    <glyph glyph-name="questiondown" unicode="&#xbf;" 
d="M295 463v-90h-69v90h69zM36 -76q0 32 9.5 55t20.5 40l143 215q10 14 17 29.5t7 38.5v21h58v-20q0 -35 -8.5 -58t-20.5 -40l-136 -204q-11 -17 -22 -37t-11 -39q0 -26 13 -47t32.5 -35.5t42 -22.5t40.5 -8q12 0 24.5 3t24.5 8l98 37l19 -54l-84 -35q-17 -7 -41 -12.5
t-40 -5.5q-36 0 -70 12.5t-59.5 35t-41 54t-15.5 69.5z" />
    <glyph glyph-name="Agrave" unicode="&#xc0;" horiz-adv-x="459" 
d="M319 255l-82 380h-13l-83 -380h178v0zM125 196l-44 -195h-54l160 700h85l160 -700h-53l-45 195h-209v0zM195 789l-106 147h61l97 -147h-52z" />
    <glyph glyph-name="Aacute" unicode="&#xc1;" horiz-adv-x="459" 
d="M319 255l-82 380h-13l-83 -380h178v0zM125 196l-44 -195h-54l160 700h85l160 -700h-53l-45 195h-209v0zM257 790h-52l97 147h61z" />
    <glyph glyph-name="Acircumflex" unicode="&#xc2;" horiz-adv-x="459" 
d="M319 255l-82 380h-13l-83 -380h178v0zM125 196l-44 -195h-54l160 700h85l160 -700h-53l-45 195h-209v0zM308 826l-78 81l-78 -81h-50l100 125h55l100 -125h-49z" />
    <glyph glyph-name="Atilde" unicode="&#xc3;" horiz-adv-x="459" 
d="M319 255l-82 380h-13l-83 -380h178v0zM125 196l-44 -195h-54l160 700h85l160 -700h-53l-45 195h-209v0zM356 855l23 -50h-272l-25 50h274z" />
    <glyph glyph-name="Adieresis" unicode="&#xc4;" horiz-adv-x="459" 
d="M319 255l-82 380h-13l-83 -380h178v0zM125 196l-44 -195h-54l160 700h85l160 -700h-53l-45 195h-209v0zM302 800v77h58v-77h-58zM104 800v77h58v-77h-58z" />
    <glyph glyph-name="AE" unicode="&#xc6;" horiz-adv-x="733" 
d="M356 635l-170 -380l221 -1l1 380zM334 700h354v-57h-227v-262h178v-58h-178v-264h229v-58h-283v195h-250l-89 -195h-54z" />
    <glyph glyph-name="Ccedilla" unicode="&#xc7;" horiz-adv-x="437" 
d="M121 188q0 -32 11 -58t29 -44t42 -28.5t50 -11.5q8 0 16.5 1.5t22 6.5l35 13.5l56.5 22.5l22 -57l-81 -29q-17 -6 -37 -10t-34 -4q-38 0 -71.5 13.5t-59 38.5t-40.5 60.5t-15 80.5v10v313q0 42 14.5 78.5t32.5 55.5q18 20 29 29.5t23 16.5l30 14.5t59 9.5q14 0 34 -5
t36 -10l78 -31l-18 -52l-87 34q-10 4 -21 7t-21 3q-27 0 -51 -12.5t-42.5 -33.5t-29 -48t-10.5 -56zM274 -98q0 -56 -15 -84t-41 -40l-29 36q17 8 27 30.5t10 58.5v51h48v-52v0z" />
    <glyph glyph-name="Egrave" unicode="&#xc8;" horiz-adv-x="406" 
d="M361 700v-57h-225v-262h176v-58h-176v-264h227v-58h-284v699h282zM189 789l-106 147h61l97 -147h-52z" />
    <glyph glyph-name="Eacute" unicode="&#xc9;" horiz-adv-x="406" 
d="M361 700v-57h-225v-262h176v-58h-176v-264h227v-58h-284v699h282zM231 784h-52l97 147h61z" />
    <glyph glyph-name="Ecircumflex" unicode="&#xca;" horiz-adv-x="406" 
d="M361 700v-57h-225v-262h176v-58h-176v-264h227v-58h-284v699h282zM275 826l-78 81l-78 -81h-50l100 125h55l100 -125h-49z" />
    <glyph glyph-name="Edieresis" unicode="&#xcb;" horiz-adv-x="406" 
d="M361 700v-57h-225v-262h176v-58h-176v-264h227v-58h-284v699h282zM287 800v77h58v-77h-58zM89 800v77h58v-77h-58z" />
    <glyph glyph-name="Igrave" unicode="&#xcc;" horiz-adv-x="208" 
d="M78 700h52v-700h-52v700zM78 789l-106 147h61l97 -147h-52z" />
    <glyph glyph-name="Iacute" unicode="&#xcd;" horiz-adv-x="208" 
d="M78 700h52v-700h-52v700zM140 790h-52l97 147h61z" />
    <glyph glyph-name="Icircumflex" unicode="&#xce;" horiz-adv-x="208" 
d="M78 700h52v-700h-52v700zM184 826l-78 81l-78 -81h-50l100 125h55l100 -125h-49z" />
    <glyph glyph-name="Idieresis" unicode="&#xcf;" horiz-adv-x="208" 
d="M78 700h52v-700h-52v700zM175 800v77h58v-77h-58zM-23 800v77h58v-77h-58z" />
    <glyph glyph-name="Ntilde" unicode="&#xd1;" horiz-adv-x="554" 
d="M476 700v-700h-97l-238 582h-12v-582h-51v700h72l261 -631h13v631h52zM402 855l23 -50h-272l-25 50h274z" />
    <glyph glyph-name="Ograve" unicode="&#xd2;" horiz-adv-x="520" 
d="M397 172v351q0 40 -15.5 64.5t-37 38t-45 18t-39.5 4.5t-39.5 -5t-45.5 -18.5t-37.5 -38t-15.5 -64.5v-351q0 -40 15.5 -63.5t37.5 -36t45.5 -16t39.5 -3.5t39.5 4t45 16.5t37 36t15.5 63.5zM452 172q0 -22 -8.5 -53t-30.5 -59.5t-59.5 -48.5t-94.5 -20q-56 0 -93 20
t-58.5 48.5t-30.5 59.5t-9 53v350q0 22 8.5 54t30.5 61.5t59 50.5t94 21q56 0 93 -21t59 -50t31 -61t9 -54v-351zM239 789l-106 147h61l97 -147h-52z" />
    <glyph glyph-name="Oacute" unicode="&#xd3;" horiz-adv-x="520" 
d="M397 172v351q0 40 -15.5 64.5t-37 38t-45 18t-39.5 4.5t-39.5 -5t-45.5 -18.5t-37.5 -38t-15.5 -64.5v-351q0 -40 15.5 -63.5t37.5 -36t45.5 -16t39.5 -3.5t39.5 4t45 16.5t37 36t15.5 63.5zM452 172q0 -22 -8.5 -53t-30.5 -59.5t-59.5 -48.5t-94.5 -20q-56 0 -93 20
t-58.5 48.5t-30.5 59.5t-9 53v350q0 22 8.5 54t30.5 61.5t59 50.5t94 21q56 0 93 -21t59 -50t31 -61t9 -54v-351zM292 790h-52l97 147h61z" />
    <glyph glyph-name="Ocircumflex" unicode="&#xd4;" horiz-adv-x="520" 
d="M397 172v351q0 40 -15.5 64.5t-37 38t-45 18t-39.5 4.5t-39.5 -5t-45.5 -18.5t-37.5 -38t-15.5 -64.5v-351q0 -40 15.5 -63.5t37.5 -36t45.5 -16t39.5 -3.5t39.5 4t45 16.5t37 36t15.5 63.5zM452 172q0 -22 -8.5 -53t-30.5 -59.5t-59.5 -48.5t-94.5 -20q-56 0 -93 20
t-58.5 48.5t-30.5 59.5t-9 53v350q0 22 8.5 54t30.5 61.5t59 50.5t94 21q56 0 93 -21t59 -50t31 -61t9 -54v-351zM338 826l-78 81l-78 -81h-50l100 125h55l100 -125h-49z" />
    <glyph glyph-name="Otilde" unicode="&#xd5;" horiz-adv-x="520" 
d="M397 172v351q0 40 -15.5 64.5t-37 38t-45 18t-39.5 4.5t-39.5 -5t-45.5 -18.5t-37.5 -38t-15.5 -64.5v-351q0 -40 15.5 -63.5t37.5 -36t45.5 -16t39.5 -3.5t39.5 4t45 16.5t37 36t15.5 63.5zM452 172q0 -22 -8.5 -53t-30.5 -59.5t-59.5 -48.5t-94.5 -20q-56 0 -93 20
t-58.5 48.5t-30.5 59.5t-9 53v350q0 22 8.5 54t30.5 61.5t59 50.5t94 21q56 0 93 -21t59 -50t31 -61t9 -54v-351zM386 855l23 -50h-272l-25 50h274z" />
    <glyph glyph-name="Odieresis" unicode="&#xd6;" horiz-adv-x="520" 
d="M397 172v351q0 40 -15.5 64.5t-37 38t-45 18t-39.5 4.5t-39.5 -5t-45.5 -18.5t-37.5 -38t-15.5 -64.5v-351q0 -40 15.5 -63.5t37.5 -36t45.5 -16t39.5 -3.5t39.5 4t45 16.5t37 36t15.5 63.5zM452 172q0 -22 -8.5 -53t-30.5 -59.5t-59.5 -48.5t-94.5 -20q-56 0 -93 20
t-58.5 48.5t-30.5 59.5t-9 53v350q0 22 8.5 54t30.5 61.5t59 50.5t94 21q56 0 93 -21t59 -50t31 -61t9 -54v-351zM333 800v77h58v-77h-58zM135 800v77h58v-77h-58z" />
    <glyph glyph-name="multiply" unicode="&#xd7;" horiz-adv-x="452" 
d="M362 99l-136 136l-136 -136l-35 35l136 136l-136 136l35 35l136 -136l136 136l35 -35l-136 -136l136 -136z" />
    <glyph glyph-name="Oslash" unicode="&#xd8;" horiz-adv-x="520" 
d="M397 172v351q0 40 -15.5 64.5t-37 38t-45 18t-39.5 4.5t-39.5 -5t-45.5 -18.5t-37.5 -38t-15.5 -64.5v-351q0 -40 15.5 -63.5t37.5 -36t45.5 -16t39.5 -3.5t39.5 4t45 16.5t37 36t15.5 63.5zM452 172q0 -22 -8.5 -53t-30.5 -59.5t-59.5 -48.5t-94.5 -20q-56 0 -93 20
t-58.5 48.5t-30.5 59.5t-9 53v350q0 22 8.5 54t30.5 61.5t59 50.5t94 21q56 0 93 -21t59 -50t31 -61t9 -54v-351zM291 766h60l-122 -832h-60z" />
    <glyph glyph-name="Ugrave" unicode="&#xd9;" horiz-adv-x="534" 
d="M267 43q18 0 42 5.5t45.5 20t36 39.5t14.5 65v528h52v-528q0 -29 -9 -60.5t-30.5 -58t-58.5 -44t-92 -17.5t-91.5 17.5t-58.5 44t-31 58t-9 60.5v528h52v-528q0 -40 14 -65t34.5 -39.5t44.5 -20t45 -5.5zM247 789l-106 147h61l97 -147h-52z" />
    <glyph glyph-name="Uacute" unicode="&#xda;" horiz-adv-x="534" 
d="M267 43q18 0 42 5.5t45.5 20t36 39.5t14.5 65v528h52v-528q0 -29 -9 -60.5t-30.5 -58t-58.5 -44t-92 -17.5t-91.5 17.5t-58.5 44t-31 58t-9 60.5v528h52v-528q0 -40 14 -65t34.5 -39.5t44.5 -20t45 -5.5zM288 790h-52l97 147h61z" />
    <glyph glyph-name="Ucircumflex" unicode="&#xdb;" horiz-adv-x="534" 
d="M267 43q18 0 42 5.5t45.5 20t36 39.5t14.5 65v528h52v-528q0 -29 -9 -60.5t-30.5 -58t-58.5 -44t-92 -17.5t-91.5 17.5t-58.5 44t-31 58t-9 60.5v528h52v-528q0 -40 14 -65t34.5 -39.5t44.5 -20t45 -5.5zM345 826l-78 81l-78 -81h-50l100 125h55l100 -125h-49z" />
    <glyph glyph-name="Udieresis" unicode="&#xdc;" horiz-adv-x="534" 
d="M267 43q18 0 42 5.5t45.5 20t36 39.5t14.5 65v528h52v-528q0 -29 -9 -60.5t-30.5 -58t-58.5 -44t-92 -17.5t-91.5 17.5t-58.5 44t-31 58t-9 60.5v528h52v-528q0 -40 14 -65t34.5 -39.5t44.5 -20t45 -5.5zM335 800v77h58v-77h-58zM137 800v77h58v-77h-58z" />
    <glyph glyph-name="Yacute" unicode="&#xdd;" horiz-adv-x="433" 
d="M260 318h-14v-318h-60v318h-12l-159 382h56l137 -322h17l137 322h56zM236 790h-52l97 147h61z" />
    <glyph glyph-name="Thorn" unicode="&#xde;" horiz-adv-x="429" 
d="M130 71q29 -15 56 -22t59 -7q17 0 32 7t26 19t17.5 27.5t6.5 33.5v243q0 36 -24 61.5t-59 25.5q-24 0 -57.5 -8.5t-56.5 -26.5v-353zM129 482q40 21 69 24.5t46 3.5q28 0 52 -11t42 -30.5t28.5 -45t10.5 -54.5v-236q0 -29 -10.5 -54.5t-28.5 -44.5t-42 -30t-52 -11
q-21 0 -52.5 5t-63.5 21v-268h-50v949h1h49h1v-218z" />
    <glyph glyph-name="germandbls" unicode="&#xdf;" horiz-adv-x="506" 
d="M460 186q0 -23 -7 -55t-27 -61t-56 -49.5t-93 -20.5h-52v54h50q18 0 40.5 4.5t42.5 19t33.5 40.5t13.5 68v43q0 43 -12.5 69t-30.5 40t-39 18.5t-39 4.5h-23v54h22h4q46 0 69 29.5t23 80.5q0 43 -13.5 69t-33 40t-42 18.5t-39.5 4.5q-18 0 -40.5 -4.5t-43 -18.5
t-34.5 -40t-14 -69v-525h-55v528q0 22 7.5 53.5t27.5 60t56.5 49t95.5 20.5q57 0 93 -20.5t56 -49.5t27 -61t7 -54q0 -42 -18.5 -81t-58.5 -53q34 -12 54 -32.5t31 -43.5t14.5 -45.5t3.5 -38.5v-46v0z" />
    <glyph glyph-name="agrave" unicode="&#xe0;" horiz-adv-x="403" 
d="M294 243q0 1 -9 6.5t-24.5 12t-36.5 12t-44 5.5q-17 0 -32.5 -7t-26.5 -19t-17.5 -27.5t-6.5 -33.5v-63q0 -18 6.5 -33.5t17.5 -27t26 -18.5t32 -7q15 0 34.5 5.5t37.5 12.5q21 8 43 18v164zM345 49l19 -18l-36 -36l-27 27q-32 -18 -66.5 -25t-54.5 -7q-28 0 -52.5 11.5
t-42.5 31t-28 45.5t-10 55v56q0 29 10 54.5t28 44.5t42.5 30t52.5 11q7 0 21.5 -1t31 -4t33.5 -8.5t29 -14.5v34q0 23 -8.5 45.5t-22.5 40.5t-33 29t-41 11q-8 0 -28.5 -5l-42.5 -10q-26 -6 -56 -14l-14 47l61 15q24 6 47 11t33 5q32 0 60 -15t49 -39.5t33 -56t12 -64.5z
M183 589l-106 147h61l97 -147h-52z" />
    <glyph glyph-name="aacute" unicode="&#xe1;" horiz-adv-x="403" 
d="M294 243q0 1 -9 6.5t-24.5 12t-36.5 12t-44 5.5q-17 0 -32.5 -7t-26.5 -19t-17.5 -27.5t-6.5 -33.5v-63q0 -18 6.5 -33.5t17.5 -27t26 -18.5t32 -7q15 0 34.5 5.5t37.5 12.5q21 8 43 18v164zM345 49l19 -18l-36 -36l-27 27q-32 -18 -66.5 -25t-54.5 -7q-28 0 -52.5 11.5
t-42.5 31t-28 45.5t-10 55v56q0 29 10 54.5t28 44.5t42.5 30t52.5 11q7 0 21.5 -1t31 -4t33.5 -8.5t29 -14.5v34q0 23 -8.5 45.5t-22.5 40.5t-33 29t-41 11q-8 0 -28.5 -5l-42.5 -10q-26 -6 -56 -14l-14 47l61 15q24 6 47 11t33 5q32 0 60 -15t49 -39.5t33 -56t12 -64.5z
M227 590h-52l97 147h61z" />
    <glyph glyph-name="acircumflex" unicode="&#xe2;" horiz-adv-x="403" 
d="M294 243q0 1 -9 6.5t-24.5 12t-36.5 12t-44 5.5q-17 0 -32.5 -7t-26.5 -19t-17.5 -27.5t-6.5 -33.5v-63q0 -18 6.5 -33.5t17.5 -27t26 -18.5t32 -7q15 0 34.5 5.5t37.5 12.5q21 8 43 18v164zM345 49l19 -18l-36 -36l-27 27q-32 -18 -66.5 -25t-54.5 -7q-28 0 -52.5 11.5
t-42.5 31t-28 45.5t-10 55v56q0 29 10 54.5t28 44.5t42.5 30t52.5 11q7 0 21.5 -1t31 -4t33.5 -8.5t29 -14.5v34q0 23 -8.5 45.5t-22.5 40.5t-33 29t-41 11q-8 0 -28.5 -5l-42.5 -10q-26 -6 -56 -14l-14 47l61 15q24 6 47 11t33 5q32 0 60 -15t49 -39.5t33 -56t12 -64.5z
M284 626l-78 81l-78 -81h-50l100 125h55l100 -125h-49z" />
    <glyph glyph-name="atilde" unicode="&#xe3;" horiz-adv-x="403" 
d="M294 243q0 1 -9 6.5t-24.5 12t-36.5 12t-44 5.5q-17 0 -32.5 -7t-26.5 -19t-17.5 -27.5t-6.5 -33.5v-63q0 -18 6.5 -33.5t17.5 -27t26 -18.5t32 -7q15 0 34.5 5.5t37.5 12.5q21 8 43 18v164zM345 49l19 -18l-36 -36l-27 27q-32 -18 -66.5 -25t-54.5 -7q-28 0 -52.5 11.5
t-42.5 31t-28 45.5t-10 55v56q0 29 10 54.5t28 44.5t42.5 30t52.5 11q7 0 21.5 -1t31 -4t33.5 -8.5t29 -14.5v34q0 23 -8.5 45.5t-22.5 40.5t-33 29t-41 11q-8 0 -28.5 -5l-42.5 -10q-26 -6 -56 -14l-14 47l61 15q24 6 47 11t33 5q32 0 60 -15t49 -39.5t33 -56t12 -64.5z
M330 655l23 -50h-272l-25 50h274z" />
    <glyph glyph-name="adieresis" unicode="&#xe4;" horiz-adv-x="403" 
d="M294 243q0 1 -9 6.5t-24.5 12t-36.5 12t-44 5.5q-17 0 -32.5 -7t-26.5 -19t-17.5 -27.5t-6.5 -33.5v-63q0 -18 6.5 -33.5t17.5 -27t26 -18.5t32 -7q15 0 34.5 5.5t37.5 12.5q21 8 43 18v164zM345 49l19 -18l-36 -36l-27 27q-32 -18 -66.5 -25t-54.5 -7q-28 0 -52.5 11.5
t-42.5 31t-28 45.5t-10 55v56q0 29 10 54.5t28 44.5t42.5 30t52.5 11q7 0 21.5 -1t31 -4t33.5 -8.5t29 -14.5v34q0 23 -8.5 45.5t-22.5 40.5t-33 29t-41 11q-8 0 -28.5 -5l-42.5 -10q-26 -6 -56 -14l-14 47l61 15q24 6 47 11t33 5q32 0 60 -15t49 -39.5t33 -56t12 -64.5z
M270 600v77h58v-77h-58zM72 600v77h58v-77h-58z" />
    <glyph glyph-name="ae" unicode="&#xe6;" horiz-adv-x="645" 
d="M300 24q-32 -20 -66 -27t-54 -7q-28 0 -52.5 11.5t-42.5 31t-28 45.5t-10 55v56q0 29 10 54.5t28 44.5t42.5 30t52.5 11q7 0 20.5 -1t30 -4t33.5 -8t29 -14v47q-3 21 -12 41.5t-22.5 36t-31 25t-37.5 9.5q-8 0 -28.5 -5l-42.5 -10q-26 -6 -56 -14l-14 47l61 15
q24 6 47 11t33 5q37 0 68.5 -19.5t52.5 -50.5q17 32 48.5 51t69.5 19h34q28 0 53 -11t44 -30t29.5 -45t10.5 -56v-33q0 -42 -15 -70.5t-41 -46.5t-60.5 -25.5t-73.5 -7.5q-16 0 -32 1t-33 3v-60q7 -40 37.5 -63.5t69.5 -23.5q4 0 25.5 4.5l45.5 9.5q28 6 62 14l12 -53
q-37 -8 -67 -13q-26 -5 -49.5 -9t-28.5 -4q-18 0 -37 4.5t-35.5 12t-30 17t-20.5 19.5q-4 -2 -8 -6l-9 -6.5t-12 -7.5zM180 279q-17 0 -32.5 -7t-26.5 -19t-17.5 -27.5t-6.5 -33.5v-63q0 -18 6.5 -33.5t17.5 -27t26 -18.5t32 -7q15 0 34.5 5.5t37.5 12.5q21 8 43 18v48
q-1 5 -1 10v10v97q-3 2 -12.5 7.5t-24.5 11.5t-34.5 11t-41.5 5zM463 242q18 -1 33.5 6t27 19.5t18 29t6.5 34.5v42q0 24 -9 40.5t-23.5 26.5t-34 14.5t-40.5 4.5q-19 0 -36.5 -6t-30.5 -17t-21 -27t-8 -36v-131h118z" />
    <glyph glyph-name="ccedilla" unicode="&#xe7;" horiz-adv-x="345" 
d="M105 148q0 -24 8.5 -43.5t23.5 -33.5t34.5 -21.5t41.5 -7.5q10 0 25 2.5t29 5.5q17 4 35 9l16 -46q-20 -7 -38 -11q-16 -4 -34.5 -7t-32.5 -3q-33 0 -61.5 11.5t-50 32.5t-34 49.5t-12.5 62.5v209q0 34 12.5 62.5t33.5 48.5t49.5 31.5t61.5 11.5q16 0 33.5 -4t32.5 -9
q18 -5 35 -12l-12 -43q-15 5 -31 9q-14 4 -29 7t-29 3q-44 0 -75.5 -28.5t-31.5 -76.5v-209zM234 -98q0 -56 -15 -84t-41 -40l-29 36q17 8 27 30.5t10 58.5v51h48v-52v0z" />
    <glyph glyph-name="egrave" unicode="&#xe8;" horiz-adv-x="407" 
d="M225 241h2q18 0 33 7.5t26 20t17.5 28.5t6.5 34v42q0 24 -9 40.5t-23.5 26.5t-34 14.5t-40.5 4.5q-19 0 -36.5 -6t-30.5 -17t-21 -27t-8 -36v-131zM55 368q0 30 10.5 56t29 45t43 30t53.5 11h34q28 0 53 -11t44 -30t29.5 -45t10.5 -56v-33q0 -42 -15 -70.5t-41 -46.5
t-60.5 -25.5t-73.5 -7.5q-16 0 -32 1t-33 3v-60q7 -40 37.5 -63.5t69.5 -23.5q4 0 25.5 4.5l45.5 9.5q28 6 62 14l12 -53q-37 -8 -67 -13q-26 -5 -49.5 -9t-28.5 -4q-32 0 -61 11.5t-51 32.5t-34.5 49.5t-12.5 62.5v221zM187 589l-106 147h61l97 -147h-52z" />
    <glyph glyph-name="eacute" unicode="&#xe9;" horiz-adv-x="407" 
d="M225 241h2q18 0 33 7.5t26 20t17.5 28.5t6.5 34v42q0 24 -9 40.5t-23.5 26.5t-34 14.5t-40.5 4.5q-19 0 -36.5 -6t-30.5 -17t-21 -27t-8 -36v-131zM55 368q0 30 10.5 56t29 45t43 30t53.5 11h34q28 0 53 -11t44 -30t29.5 -45t10.5 -56v-33q0 -42 -15 -70.5t-41 -46.5
t-60.5 -25.5t-73.5 -7.5q-16 0 -32 1t-33 3v-60q7 -40 37.5 -63.5t69.5 -23.5q4 0 25.5 4.5l45.5 9.5q28 6 62 14l12 -53q-37 -8 -67 -13q-26 -5 -49.5 -9t-28.5 -4q-32 0 -61 11.5t-51 32.5t-34.5 49.5t-12.5 62.5v221zM235 590h-52l97 147h61z" />
    <glyph glyph-name="ecircumflex" unicode="&#xea;" horiz-adv-x="407" 
d="M225 241h2q18 0 33 7.5t26 20t17.5 28.5t6.5 34v42q0 24 -9 40.5t-23.5 26.5t-34 14.5t-40.5 4.5q-19 0 -36.5 -6t-30.5 -17t-21 -27t-8 -36v-131zM55 368q0 30 10.5 56t29 45t43 30t53.5 11h34q28 0 53 -11t44 -30t29.5 -45t10.5 -56v-33q0 -42 -15 -70.5t-41 -46.5
t-60.5 -25.5t-73.5 -7.5q-16 0 -32 1t-33 3v-60q7 -40 37.5 -63.5t69.5 -23.5q4 0 25.5 4.5l45.5 9.5q28 6 62 14l12 -53q-37 -8 -67 -13q-26 -5 -49.5 -9t-28.5 -4q-32 0 -61 11.5t-51 32.5t-34.5 49.5t-12.5 62.5v221zM282 626l-78 81l-78 -81h-50l100 125h55l100 -125
h-49z" />
    <glyph glyph-name="edieresis" unicode="&#xeb;" horiz-adv-x="407" 
d="M225 241h2q18 0 33 7.5t26 20t17.5 28.5t6.5 34v42q0 24 -9 40.5t-23.5 26.5t-34 14.5t-40.5 4.5q-19 0 -36.5 -6t-30.5 -17t-21 -27t-8 -36v-131zM55 368q0 30 10.5 56t29 45t43 30t53.5 11h34q28 0 53 -11t44 -30t29.5 -45t10.5 -56v-33q0 -42 -15 -70.5t-41 -46.5
t-60.5 -25.5t-73.5 -7.5q-16 0 -32 1t-33 3v-60q7 -40 37.5 -63.5t69.5 -23.5q4 0 25.5 4.5l45.5 9.5q28 6 62 14l12 -53q-37 -8 -67 -13q-26 -5 -49.5 -9t-28.5 -4q-32 0 -61 11.5t-51 32.5t-34.5 49.5t-12.5 62.5v221zM282 600v77h58v-77h-58zM84 600v77h58v-77h-58z" />
    <glyph glyph-name="igrave" unicode="&#xec;" horiz-adv-x="181" 
d="M64 500h53v-500h-53v500zM61 589l-106 147h61l97 -147h-52z" />
    <glyph glyph-name="iacute" unicode="&#xed;" horiz-adv-x="181" 
d="M64 500h53v-500h-53v500zM117 590h-52l97 147h61z" />
    <glyph glyph-name="icircumflex" unicode="&#xee;" horiz-adv-x="181" 
d="M64 700h53v-78h-53v78zM64 500h53v-500h-53v500zM170 626l-78 81l-78 -81h-50l100 125h55l100 -125h-49z" />
    <glyph glyph-name="idieresis" unicode="&#xef;" horiz-adv-x="181" 
d="M64 500h53v-500h-53v500zM161 600v77h58v-77h-58zM-37 600v77h58v-77h-58z" />
    <glyph glyph-name="ntilde" unicode="&#xf1;" horiz-adv-x="432" 
d="M356 427q12 -25 14 -50.5t2 -52.5v-324h-53v355q0 51 -27 78t-61 27q-19 0 -48.5 -6t-66.5 -30v-424h-51v451l-22 21l36 36l30 -30q55 31 104 31q45 0 84 -18.5t59 -63.5zM337 655l23 -50h-272l-25 50h274z" />
    <glyph glyph-name="ograve" unicode="&#xf2;" 
d="M316 144v217q0 33 -12 52.5t-28.5 30t-35 14t-31.5 3.5t-31.5 -3.5t-35.5 -14t-29 -30t-12 -52.5v-217q0 -33 12 -52.5t29 -30.5t35.5 -14.5t31.5 -3.5t31.5 3.5t35 14.5t28.5 30.5t12 52.5zM362 137q0 -46 -17 -74t-41 -43.5t-50 -20.5t-45 -5t-45 5t-50 20.5t-41 43.5
t-17 74v231q0 46 17 74t41 43t50 20t45 5t45 -5t50 -20t41 -43t17 -74v-231zM184 589l-106 147h61l97 -147h-52z" />
    <glyph glyph-name="oacute" unicode="&#xf3;" 
d="M316 144v217q0 33 -12 52.5t-28.5 30t-35 14t-31.5 3.5t-31.5 -3.5t-35.5 -14t-29 -30t-12 -52.5v-217q0 -33 12 -52.5t29 -30.5t35.5 -14.5t31.5 -3.5t31.5 3.5t35 14.5t28.5 30.5t12 52.5zM362 137q0 -46 -17 -74t-41 -43.5t-50 -20.5t-45 -5t-45 5t-50 20.5t-41 43.5
t-17 74v231q0 46 17 74t41 43t50 20t45 5t45 -5t50 -20t41 -43t17 -74v-231zM230 590h-52l97 147h61z" />
    <glyph glyph-name="ocircumflex" unicode="&#xf4;" 
d="M316 144v217q0 33 -12 52.5t-28.5 30t-35 14t-31.5 3.5t-31.5 -3.5t-35.5 -14t-29 -30t-12 -52.5v-217q0 -33 12 -52.5t29 -30.5t35.5 -14.5t31.5 -3.5t31.5 3.5t35 14.5t28.5 30.5t12 52.5zM362 137q0 -46 -17 -74t-41 -43.5t-50 -20.5t-45 -5t-45 5t-50 20.5t-41 43.5
t-17 74v231q0 46 17 74t41 43t50 20t45 5t45 -5t50 -20t41 -43t17 -74v-231zM287 626l-78 81l-78 -81h-50l100 125h55l100 -125h-49z" />
    <glyph glyph-name="otilde" unicode="&#xf5;" 
d="M316 144v217q0 33 -12 52.5t-28.5 30t-35 14t-31.5 3.5t-31.5 -3.5t-35.5 -14t-29 -30t-12 -52.5v-217q0 -33 12 -52.5t29 -30.5t35.5 -14.5t31.5 -3.5t31.5 3.5t35 14.5t28.5 30.5t12 52.5zM362 137q0 -46 -17 -74t-41 -43.5t-50 -20.5t-45 -5t-45 5t-50 20.5t-41 43.5
t-17 74v231q0 46 17 74t41 43t50 20t45 5t45 -5t50 -20t41 -43t17 -74v-231zM336 655l23 -50h-272l-25 50h274z" />
    <glyph glyph-name="odieresis" unicode="&#xf6;" 
d="M316 144v217q0 33 -12 52.5t-28.5 30t-35 14t-31.5 3.5t-31.5 -3.5t-35.5 -14t-29 -30t-12 -52.5v-217q0 -33 12 -52.5t29 -30.5t35.5 -14.5t31.5 -3.5t31.5 3.5t35 14.5t28.5 30.5t12 52.5zM362 137q0 -46 -17 -74t-41 -43.5t-50 -20.5t-45 -5t-45 5t-50 20.5t-41 43.5
t-17 74v231q0 46 17 74t41 43t50 20t45 5t45 -5t50 -20t41 -43t17 -74v-231zM279 600v77h58v-77h-58zM81 600v77h58v-77h-58z" />
    <glyph glyph-name="divide" unicode="&#xf7;" horiz-adv-x="455" 
d="M267 321h-69v90h69v-90zM266 1h-69v88h69v-88zM57 180v64h343v-64h-343z" />
    <glyph glyph-name="oslash" unicode="&#xf8;" horiz-adv-x="419" 
d="M316 144v217q0 33 -12 52.5t-28.5 30t-35 14t-31.5 3.5t-31.5 -3.5t-35.5 -14t-29 -30t-12 -52.5v-217q0 -33 12 -52.5t29 -30.5t35.5 -14.5t31.5 -3.5t31.5 3.5t35 14.5t28.5 30.5t12 52.5zM362 137q0 -46 -17 -74t-41 -43.5t-50 -20.5t-45 -5t-45 5t-50 20.5t-41 43.5
t-17 74v231q0 46 17 74t41 43t50 20t45 5t45 -5t50 -20t41 -43t17 -74v-231zM229 610h60l-101 -698h-60z" />
    <glyph glyph-name="ugrave" unicode="&#xf9;" horiz-adv-x="432" 
d="M77 74q-12 25 -14 50.5t-2 52.5v323h52v-354q0 -26 7.5 -45.5t20 -32.5t28.5 -20t33 -7q32 0 64.5 11.5t50.5 24.5v423h51v-450l22 -21l-36 -36l-30 30q-29 -16 -62 -23.5t-59 -7.5q-36 0 -71 18.5t-55 63.5zM187 589l-106 147h61l97 -147h-52z" />
    <glyph glyph-name="uacute" unicode="&#xfa;" horiz-adv-x="432" 
d="M77 74q-12 25 -14 50.5t-2 52.5v323h52v-354q0 -26 7.5 -45.5t20 -32.5t28.5 -20t33 -7q32 0 64.5 11.5t50.5 24.5v423h51v-450l22 -21l-36 -36l-30 30q-29 -16 -62 -23.5t-59 -7.5q-36 0 -71 18.5t-55 63.5zM231 590h-52l97 147h61z" />
    <glyph glyph-name="ucircumflex" unicode="&#xfb;" horiz-adv-x="432" 
d="M77 74q-12 25 -14 50.5t-2 52.5v323h52v-354q0 -26 7.5 -45.5t20 -32.5t28.5 -20t33 -7q32 0 64.5 11.5t50.5 24.5v423h51v-450l22 -21l-36 -36l-30 30q-29 -16 -62 -23.5t-59 -7.5q-36 0 -71 18.5t-55 63.5zM292 626l-78 81l-78 -81h-50l100 125h55l100 -125h-49z" />
    <glyph glyph-name="udieresis" unicode="&#xfc;" horiz-adv-x="432" 
d="M77 74q-12 25 -14 50.5t-2 52.5v323h52v-354q0 -26 7.5 -45.5t20 -32.5t28.5 -20t33 -7q32 0 64.5 11.5t50.5 24.5v423h51v-450l22 -21l-36 -36l-30 30q-29 -16 -62 -23.5t-59 -7.5q-36 0 -71 18.5t-55 63.5zM287 600v77h58v-77h-58zM89 600v77h58v-77h-58z" />
    <glyph glyph-name="yacute" unicode="&#xfd;" horiz-adv-x="375" 
d="M121 -250l41 250h-7l-133 500h51q26 -110 46.5 -186.5l34.5 -125.5l27 -94h12l24 94l33.5 125.5l51.5 186.5h51l-134 -500h-6l-41 -250h-51zM206 590h-52l97 147h61z" />
    <glyph glyph-name="thorn" unicode="&#xfe;" horiz-adv-x="419" 
d="M116 70q29 -15 56 -22t59 -7q17 0 32 7t26 19t17.5 27.5t6.5 33.5v243q0 36 -24 61.5t-59 25.5q-24 0 -57.5 -8.5t-56.5 -26.5v-353zM115 481q40 21 69 24.5t46 3.5q28 0 52 -11t42 -30.5t28.5 -45t10.5 -54.5v-236q0 -29 -10.5 -54.5t-28.5 -44.5t-42 -30t-52 -11
q-21 0 -52.5 5t-63.5 21v-268h-50v949h1h49h1v-218z" />
    <glyph glyph-name="ydieresis" unicode="&#xff;" horiz-adv-x="375" 
d="M121 -250l41 250h-7l-133 500h51q26 -110 46.5 -186.5l34.5 -125.5l27 -94h12l24 94l33.5 125.5l51.5 186.5h51l-134 -500h-6l-41 -250h-51zM259 600v77h58v-77h-58zM61 600v77h58v-77h-58z" />
    <glyph glyph-name="Lslash" unicode="&#x141;" horiz-adv-x="384" 
d="M360 57v-56h-279v209h-69v54h69v436h57v-436h219v-54h-219v-153h222v0z" />
    <glyph glyph-name="lslash" unicode="&#x142;" horiz-adv-x="375" 
d="M179 209v-82q0 -41 20.5 -56.5t49.5 -15.5h13v-54h-18q-25 0 -46.5 7.5t-37 23t-24.5 40.5t-9 60v77h-104v54h104v437h52v-437h187v-54h-187z" />
    <glyph glyph-name="OE" unicode="&#x152;" horiz-adv-x="723" 
d="M396 551q-4 34 -20 55t-37 32.5t-42.5 15.5t-36.5 4q-16 0 -39.5 -5t-45.5 -18.5t-37.5 -38t-15.5 -64.5v-351q0 -40 15.5 -63.5t37.5 -36t45.5 -16t39.5 -3.5q15 0 36.5 3.5t42.5 14t37 30.5t20 54v387zM396 50q-23 -21 -56 -35t-81 -14q-56 0 -93 20t-58.5 48.5
t-30.5 59.5t-9 53v350q0 22 8.5 54t30.5 61.5t59 50.5t94 21q47 0 80 -15t56 -38v44h282v-57h-225v-262h176v-58h-176v-264h227v-58h-284v39z" />
    <glyph glyph-name="oe" unicode="&#x153;" horiz-adv-x="668" 
d="M316 142v217q0 33 -12 52.5t-28.5 30t-35 14t-31.5 3.5t-31.5 -3.5t-35.5 -14t-29 -30t-12 -52.5v-217q0 -33 12 -52.5t29 -30.5t35.5 -14.5t31.5 -3.5t31.5 3.5t35 14.5t28.5 30.5t12 52.5zM362 135q0 -46 -17 -74t-41 -43.5t-50 -20.5t-45 -5t-45 5t-50 20.5t-41 43.5
t-17 74v231q0 46 17 74t41 43t50 20t45 5t45 -5t50 -20t41 -43t17 -74v-231zM486 241h2q18 0 33 7.5t26 20t17.5 28.5t6.5 34v42q0 24 -9 40.5t-23.5 26.5t-34 14.5t-40.5 4.5q-19 0 -36.5 -6t-30.5 -17t-21 -27t-8 -36v-131zM316 368q0 30 10.5 56t29 45t43 30t53.5 11h34
q28 0 53 -11t44 -30t29.5 -45t10.5 -56v-33q0 -42 -15 -70.5t-41 -46.5t-60.5 -25.5t-73.5 -7.5q-16 0 -32 1t-33 3v-60q7 -40 37.5 -63.5t69.5 -23.5q10 0 32 4t45 9q26 6 56 14l12 -52q-32 -8 -60 -13q-24 -5 -48 -9t-37 -4q-32 0 -61 11.5t-51 32.5t-34.5 49.5
t-12.5 62.5v221z" />
    <glyph glyph-name="Scaron" unicode="&#x160;" horiz-adv-x="467" 
d="M440 205q0 -42 -14.5 -79t-40 -64.5t-60.5 -44t-75 -16.5q-39 0 -76 10t-66 22q-34 14 -65 33l20 55q34 -18 67 -31q29 -11 61 -20.5t58 -9.5q28 0 52.5 11t42.5 30.5t28 45.5t10 56q0 31 -14 51.5t-35.5 34t-47.5 21t-51 11.5q-37 6 -69.5 21t-57 39t-38.5 56t-14 72
q0 41 14.5 77.5t40 64t59.5 43.5t72 16q24 0 49.5 -5.5t47.5 -11.5q25 -8 49 -17l-19 -56q-22 9 -45 16q-20 6 -42 11t-42 5q-27 0 -50.5 -11.5t-40.5 -31t-27 -45t-10 -52.5q0 -31 12.5 -54.5t32 -39.5t43.5 -25.5t46 -13.5q41 -7 76.5 -20t62 -33.5t41.5 -50.5t15 -70z
M168 950l78 -81l78 81h50l-100 -125h-55l-100 125h49z" />
    <glyph glyph-name="scaron" unicode="&#x161;" horiz-adv-x="361" 
d="M336 138q0 -74 -37 -111t-95 -37q-18 0 -37 3t-38 11l-83 33l20 44l82 -33q15 -6 29.5 -8.5t27.5 -2.5q35 0 59 27t24 78q0 21 -8.5 36t-21 24.5t-28 14t-28.5 4.5q-36 0 -65 6.5t-49.5 23t-31.5 43.5t-11 68q0 73 39.5 110.5t97.5 37.5q17 0 35.5 -4.5t38.5 -11.5
l33 -12l-19 -43q-24 9 -38.5 13.5t-23 6.5t-13 2.5t-9.5 0.5h-5q-35 0 -61.5 -27.5t-26.5 -77.5q0 -21 9 -37t23 -27.5t29.5 -17t29.5 -5.5q31 0 59 -5.5t48.5 -20t32.5 -40.5t12 -66zM106 750l78 -81l78 81h50l-100 -125h-55l-100 125h49z" />
    <glyph glyph-name="Ydieresis" unicode="&#x178;" horiz-adv-x="433" 
d="M260 318h-14v-318h-60v318h-12l-159 382h56l137 -322h17l137 322h56zM290 800v77h58v-77h-58zM92 800v77h58v-77h-58z" />
    <glyph glyph-name="Zcaron" unicode="&#x17d;" horiz-adv-x="453" 
d="M332 627v14h-276v59h350v-58l-299 -567v-16h315v-59h-389v66zM149 950l78 -81l78 81h50l-100 -125h-55l-100 125h49z" />
    <glyph glyph-name="zcaron" unicode="&#x17e;" horiz-adv-x="406" 
d="M376 0h-341v52l253 376v19h-244v51h315v-52l-253 -377v-18h270v-51zM127 750l78 -81l78 81h50l-100 -125h-55l-100 125h49z" />
    <glyph glyph-name="circumflex" unicode="&#x2c6;" horiz-adv-x="396" 
d="M276 626l-78 81l-78 -81h-50l100 125h55l100 -125h-49z" />
    <glyph glyph-name="caron" unicode="&#x2c7;" horiz-adv-x="401" 
d="M120 750l78 -81l78 81h50l-100 -125h-55l-100 125h49z" />
    <glyph glyph-name="dotaccent" unicode="&#x2d9;" horiz-adv-x="208" 
 />
    <glyph glyph-name="tilde" unicode="&#x2dc;" horiz-adv-x="497" 
d="M374 655l23 -50h-272l-25 50h274z" />
    <glyph glyph-name="endash" unicode="&#x2013;" horiz-adv-x="463" 
d="M59 209v54h343v-54h-343z" />
    <glyph glyph-name="emdash" unicode="&#x2014;" horiz-adv-x="734" 
d="M59 209v54h614v-54h-614z" />
    <glyph glyph-name="quotesinglbase" unicode="&#x201a;" horiz-adv-x="187" 
d="M142 449q0 -56 -23 -90t-61 -50l-17 60q17 8 30 26.5t13 54.5v51h58v-52v0z" />
    <glyph glyph-name="quotedblleft" unicode="&#x201c;" horiz-adv-x="316" 
d="M49 562q0 56 23 90t61 50l17 -60q-17 -8 -30 -26.5t-13 -54.5v-51h-58v52zM180 562q0 56 23 90t61 50l17 -60q-17 -8 -30 -26.5t-13 -54.5v-51h-58v52z" />
    <glyph glyph-name="quotedblright" unicode="&#x201d;" horiz-adv-x="312" 
d="M269 648q0 -56 -23 -90t-61 -50l-17 60q17 8 30 26.5t13 54.5v51h58v-52zM138 648q0 -56 -23 -90t-61 -50l-17 60q17 8 30 26.5t13 54.5v51h58v-52z" />
    <glyph glyph-name="bullet" unicode="&#x2022;" horiz-adv-x="296" 
d="M252 247q0 -21 -8 -40t-22.5 -33.5t-33.5 -22.5t-40 -8t-40 8t-33 22.5t-22 33.5t-8 40t8 40t22 33.5t33 22.5t40 8t40 -8t33.5 -22.5t22.5 -33.5t8 -40z" />
    <glyph glyph-name="ellipsis" unicode="&#x2026;" horiz-adv-x="503" 
d="M56 5v88h69v-88h-69zM217 5v88h69v-88h-69zM378 5v88h69v-88h-69z" />
    <glyph glyph-name="fraction" unicode="&#x2044;" horiz-adv-x="218" 
d="M130 699h60l-101 -698h-60z" />
    <glyph glyph-name="Euro" unicode="&#x20ac;" horiz-adv-x="465" 
d="M412 163v-26q0 -29 -10.5 -54t-28.5 -43.5t-42 -29t-52 -10.5h-33q-28 0 -52 10.5t-42 29t-28 43.5t-10 54v113h-72v44h72v76h-72v44h72v113q0 29 10.5 54t28.5 43.5t42 29t52 10.5h33q27 0 51 -10.5t42 -29t28.5 -43.5t10.5 -54v-23h-51v23q0 40 -28 61.5t-65 21.5
q-21 0 -39.5 -4t-32.5 -14t-22.5 -25.5t-8.5 -39.5v-113h153v-44h-153v-76h153v-44h-153v-110q0 -36 23.5 -61.5t58.5 -25.5h32q34 0 58 25.5t24 61.5v23h51z" />
    <glyph glyph-name="trademark" unicode="&#x2122;" horiz-adv-x="556" 
d="M385 505l59 195h39v-313h-24v260h-6l-52 -168h-39l-52 168h-6v-260h-23v313h39l58 -195h7zM227 700v-24h-72v-289h-24v289h-74v24h170z" />
    <glyph glyph-name="minus" unicode="&#x2212;" horiz-adv-x="481" 
d="M69 251v64h343v-64h-343z" />
    <glyph glyph-name="fi" unicode="&#xfb01;" horiz-adv-x="463" 
d="M346 700h53v-78h-53v78zM165 500h234v-500h-53v451h-180v-451h-53v451h-88v49h89v78q0 35 9 60t24.5 40.5t37 23t46.5 7.5h18v-54h-13q-28 0 -49.5 -15t-21.5 -55v-85z" />
    <glyph glyph-name="fl" unicode="&#xfb02;" horiz-adv-x="488" 
d="M346 132v319h-180v-451h-53v451h-88v49h89v78q0 35 9 60t24.5 40.5t37 23t46.5 7.5h18v-54h-13q-28 0 -49.5 -15t-21.5 -55v-85h181v200h52v-573q0 -41 20.5 -56.5t49.5 -15.5h13v-54h-18q-25 0 -46.5 7.5t-37 23t-24.5 40.5t-9 60z" />
    <glyph glyph-name="glyph91" horiz-adv-x="0" 
 />
    </font>
</defs>
</svg>
